<?xml version="1.0" encoding="UTF-8" ?>
<!DOCTYPE svg PUBLIC "-//W3C//DTD SVG 1.1//EN" "http://www.w3.org/Graphics/SVG/1.1/DTD/svg11.dtd">
<svg width="876pt" height="1196pt" viewBox="0 0 876 1196" version="1.1" xmlns="http://www.w3.org/2000/svg">
<path fill="#ffffff" d=" M 0.00 0.00 L 876.00 0.00 L 876.00 1196.00 L 0.00 1196.00 L 0.00 0.00 Z" />
<path fill="#000000" d=" M 233.97 4.48 C 234.82 5.19 235.81 5.46 236.93 5.27 C 245.16 4.78 253.39 4.16 261.63 3.82 C 285.81 25.18 310.36 46.13 334.69 67.33 C 338.68 70.71 342.48 74.33 346.67 77.47 C 358.64 104.00 370.39 130.64 382.55 157.08 C 382.79 163.16 384.38 169.07 385.28 175.07 C 389.04 195.82 392.23 216.69 396.38 237.36 C 397.45 262.91 398.77 288.48 400.01 314.03 C 401.08 318.40 399.61 322.72 399.50 327.11 C 398.18 345.10 396.80 363.09 395.45 381.08 C 395.11 387.01 394.24 392.93 394.49 398.88 C 393.95 400.29 392.99 401.55 392.78 403.11 C 386.79 428.09 380.48 453.00 374.64 478.02 C 366.42 501.47 358.50 525.06 350.40 548.56 C 348.72 553.06 347.77 557.94 344.84 561.86 C 334.42 586.79 324.15 611.78 313.75 636.72 C 311.25 642.52 311.45 648.95 310.65 655.11 C 308.63 676.72 306.19 698.31 304.41 719.94 C 305.58 732.01 308.03 743.95 309.72 755.97 C 312.09 770.61 314.10 785.32 316.74 799.91 C 317.84 800.12 317.47 800.91 316.80 801.44 C 320.98 821.64 325.64 841.74 329.99 861.91 C 331.38 867.81 332.40 873.80 334.10 879.63 C 338.16 906.10 341.92 932.65 346.16 959.11 C 346.64 980.88 347.04 1002.73 347.89 1024.51 C 348.75 1025.45 348.04 1026.67 348.00 1027.76 C 347.60 1031.54 348.09 1035.34 348.42 1039.12 C 347.95 1041.64 346.72 1043.98 346.22 1046.53 C 346.65 1046.46 347.51 1046.33 347.94 1046.27 C 347.54 1046.37 346.74 1046.57 346.34 1046.68 C 340.21 1070.37 334.14 1094.09 328.34 1117.87 C 306.76 1138.41 286.02 1159.87 264.63 1180.62 C 263.52 1181.66 262.60 1182.88 261.96 1184.28 C 236.32 1185.80 210.71 1187.73 185.07 1189.35 C 183.70 1189.51 181.98 1189.20 181.05 1190.49 L 181.39 1189.45 C 179.88 1189.77 178.37 1190.11 176.86 1190.47 C 148.91 1166.19 120.62 1142.30 92.60 1118.09 C 83.31 1098.32 73.46 1078.80 63.96 1059.12 C 60.65 1052.50 57.59 1045.75 54.08 1039.23 C 54.47 1036.12 54.01 1033.01 53.77 1029.92 C 52.11 1009.62 50.47 989.33 48.82 969.03 C 47.71 959.07 48.45 949.03 48.24 939.04 C 48.02 912.03 48.90 884.99 47.30 858.01 C 46.16 836.15 45.68 814.24 44.02 792.41 C 43.80 791.00 44.22 788.73 42.36 788.46 C 42.66 788.40 43.27 788.27 43.58 788.21 C 41.94 764.80 40.02 741.42 38.20 718.03 C 34.75 694.70 31.12 671.40 27.61 648.09 C 24.06 626.75 20.24 605.45 16.58 584.13 C 16.19 582.54 16.29 580.53 14.75 579.54 C 15.68 573.11 13.09 566.65 12.38 560.22 C 9.68 532.85 6.76 505.50 4.06 478.13 C 3.49 452.10 2.71 426.08 2.17 400.05 C 3.89 373.65 5.93 347.26 7.72 320.86 C 11.92 298.69 15.70 276.39 19.46 254.12 C 19.17 253.94 18.59 253.56 18.29 253.38 C 18.67 253.41 19.41 253.47 19.79 253.50 C 20.55 248.02 21.57 242.57 22.48 237.11 C 32.48 210.20 42.66 183.35 52.57 156.42 C 65.31 130.63 78.44 105.05 91.19 79.27 C 92.39 76.34 95.39 74.89 97.65 72.88 C 124.01 51.52 150.59 30.41 176.83 8.91 C 196.13 7.87 215.41 6.48 234.71 5.46 L 233.97 4.48 Z" />
<path fill="#000000" d=" M 565.09 45.99 C 581.28 31.90 597.58 17.92 613.71 3.76 C 641.93 5.48 670.07 7.17 698.26 8.88 C 726.31 31.85 754.81 54.31 782.83 77.30 C 796.12 103.38 809.19 129.60 822.30 155.79 C 832.37 182.75 842.44 209.73 852.54 236.68 C 857.57 264.74 862.18 292.93 867.45 320.94 C 868.64 337.78 869.74 354.75 871.16 371.50 C 871.45 381.33 872.69 391.12 873.01 400.95 C 872.40 426.96 871.66 452.96 871.09 478.97 C 868.24 506.04 865.51 533.13 862.79 560.22 C 860.86 570.95 859.05 581.71 857.13 592.44 C 856.87 593.58 856.78 594.80 857.34 595.89 L 856.62 595.18 C 854.20 610.47 851.09 625.66 848.89 640.99 C 845.96 656.59 844.03 672.37 841.48 688.04 C 839.70 701.16 836.94 714.17 836.21 727.42 C 834.23 752.96 832.24 778.50 830.29 804.05 C 829.25 830.71 827.56 857.36 826.97 884.04 C 826.76 911.28 827.17 938.53 826.76 965.76 C 828.31 966.29 826.39 967.64 826.42 968.55 C 825.02 984.71 823.79 1000.90 822.44 1017.07 C 822.08 1024.42 820.72 1031.77 821.11 1039.14 C 808.00 1065.40 795.22 1091.84 782.41 1118.24 C 754.39 1142.36 726.23 1166.33 698.22 1190.47 C 694.61 1189.37 690.83 1189.44 687.11 1189.17 C 670.89 1188.07 654.66 1186.99 638.43 1185.89 L 639.00 1186.23 C 637.05 1185.80 635.05 1185.57 633.07 1185.65 C 632.87 1187.37 631.51 1185.61 630.78 1185.41 C 624.93 1184.92 619.07 1184.58 613.21 1184.26 C 611.71 1181.10 608.74 1179.04 606.37 1176.59 C 586.45 1156.98 566.82 1137.06 546.71 1117.64 C 541.16 1094.02 534.83 1070.58 529.02 1047.02 C 528.35 1044.67 528.08 1042.11 526.64 1040.08 C 527.75 1028.11 527.43 1016.06 527.95 1004.06 C 528.14 989.68 529.02 975.30 528.77 960.92 C 532.97 934.01 536.93 907.05 540.96 880.11 C 543.02 872.32 544.70 864.42 546.21 856.51 C 545.87 855.94 545.58 855.40 545.28 854.84 L 546.42 856.45 C 550.23 838.62 554.24 820.83 558.14 803.02 C 561.65 780.01 565.30 757.03 568.87 734.03 C 569.56 728.40 571.20 722.80 570.64 717.09 C 569.58 706.19 568.41 695.30 567.45 684.40 L 566.54 685.01 C 567.23 684.18 567.44 683.22 567.19 682.15 C 566.03 670.70 564.92 659.25 563.79 647.80 C 564.20 646.06 561.41 644.49 563.43 643.14 C 562.88 641.23 562.42 639.31 561.70 637.47 C 551.47 612.69 541.13 587.95 530.92 563.15 C 530.13 560.90 528.27 559.23 527.61 556.93 C 520.31 535.45 512.91 514.00 505.58 492.53 C 503.95 488.16 502.84 483.59 500.77 479.40 C 495.67 456.55 489.74 433.87 484.31 411.09 C 483.15 407.11 482.85 402.81 480.75 399.17 C 480.62 388.09 479.23 377.05 478.58 365.99 C 477.23 350.35 476.57 334.64 474.76 319.05 C 475.97 301.91 476.45 284.66 477.45 267.48 C 477.12 267.46 476.46 267.42 476.13 267.40 L 477.38 267.42 C 477.82 257.96 478.48 248.49 478.64 239.02 C 483.17 214.35 487.29 189.55 491.69 164.83 C 492.17 162.25 492.57 159.64 492.64 157.01 C 504.80 130.60 516.55 104.00 528.48 77.48 C 540.92 67.28 552.84 56.44 565.09 45.99 Z" />
<path fill="#ffffff" d=" M 178.28 10.26 C 205.64 8.41 233.03 6.90 260.40 5.13 C 260.38 29.13 260.41 53.12 260.38 77.12 C 233.02 77.14 205.66 77.11 178.31 77.13 C 178.24 54.84 178.29 32.55 178.28 10.26 Z" />
<path fill="#ffffff" d=" M 614.76 5.13 C 642.11 6.88 669.49 8.44 696.84 10.23 C 696.86 32.53 696.88 54.83 696.83 77.13 C 669.48 77.12 642.12 77.15 614.77 77.12 C 614.76 53.12 614.77 29.12 614.76 5.13 Z" />
<path fill="#ffffff" d=" M 262.40 19.03 C 262.37 14.72 262.59 10.40 262.08 6.11 C 285.70 26.66 309.38 47.13 333.02 67.65 C 336.53 70.75 340.24 73.65 343.50 77.04 C 316.48 77.26 289.45 77.05 262.43 77.13 C 262.36 57.77 262.42 38.40 262.40 19.03 Z" />
<path fill="#ffffff" d=" M 531.55 77.07 C 558.47 53.16 585.95 29.88 613.04 6.15 C 612.38 29.79 612.97 53.47 612.74 77.13 C 585.67 77.08 558.61 77.22 531.55 77.07 Z" />
<path fill="#ffffff" d=" M 94.82 77.01 C 121.78 54.97 149.02 33.25 176.12 11.37 C 176.47 33.28 176.19 55.21 176.26 77.12 C 149.11 77.05 121.96 77.28 94.82 77.01 Z" />
<path fill="#ffffff" d=" M 699.10 11.37 C 726.14 33.30 753.40 54.96 780.34 77.01 C 753.19 77.29 726.03 77.06 698.87 77.12 C 699.00 55.20 698.55 33.27 699.10 11.37 Z" />
<path fill="#ffffff" d=" M 94.17 79.13 C 121.54 79.13 148.90 79.13 176.27 79.13 C 176.27 105.15 176.28 131.16 176.27 157.18 C 148.90 157.19 121.53 157.18 94.16 157.19 C 94.17 131.17 94.16 105.15 94.17 79.13 Z" />
<path fill="#ffffff" d=" M 178.27 79.13 C 205.64 79.13 233.02 79.13 260.40 79.13 C 260.40 105.15 260.39 131.16 260.40 157.18 C 233.02 157.19 205.65 157.18 178.28 157.18 C 178.27 131.16 178.29 105.15 178.27 79.13 Z" />
<path fill="#ffffff" d=" M 262.40 79.13 C 289.78 79.13 317.16 79.13 344.53 79.13 C 344.51 105.15 344.53 131.17 344.52 157.19 C 317.15 157.19 289.78 157.17 262.42 157.20 C 262.38 131.17 262.41 105.15 262.40 79.13 Z" />
<path fill="#ffffff" d=" M 530.63 79.13 C 558.01 79.14 585.39 79.12 612.77 79.14 C 612.75 105.16 612.77 131.17 612.76 157.19 C 585.39 157.18 558.02 157.18 530.64 157.19 C 530.63 131.17 530.65 105.15 530.63 79.13 Z" />
<path fill="#ffffff" d=" M 614.75 79.14 C 642.12 79.13 669.49 79.14 696.86 79.13 C 696.86 105.15 696.87 131.17 696.85 157.19 C 669.49 157.18 642.12 157.19 614.76 157.19 C 614.76 131.17 614.77 105.15 614.75 79.14 Z" />
<path fill="#ffffff" d=" M 698.86 79.15 C 726.27 79.13 753.68 79.09 781.08 79.17 C 780.97 105.18 781.34 131.21 780.90 157.21 C 753.55 157.14 726.21 157.21 698.86 157.18 C 698.86 131.17 698.85 105.16 698.86 79.15 Z" />
<path fill="#ffffff" d=" M 346.59 80.82 C 358.13 106.20 369.65 131.60 380.82 157.14 C 369.39 157.25 357.96 157.15 346.53 157.18 C 346.57 131.73 346.44 106.27 346.59 80.82 Z" />
<path fill="#ffffff" d=" M 494.37 157.15 C 505.49 131.57 517.07 106.18 528.59 80.77 C 528.70 106.24 528.60 131.71 528.64 157.18 C 517.22 157.17 505.80 157.23 494.37 157.15 Z" />
<path fill="#ffffff" d=" M 53.65 157.14 C 66.44 131.55 79.39 106.05 92.11 80.43 C 92.23 106.01 92.12 131.59 92.16 157.18 C 79.33 157.16 66.49 157.24 53.65 157.14 Z" />
<path fill="#ffffff" d=" M 783.18 80.39 C 795.63 106.13 808.81 131.52 821.51 157.13 C 808.70 157.26 795.90 157.13 783.10 157.20 C 783.14 131.60 782.98 105.99 783.18 80.39 Z" />
<path fill="#ffffff" d=" M 52.99 159.24 C 66.05 159.13 79.10 159.20 92.16 159.21 C 92.16 185.23 92.16 211.25 92.16 237.27 C 69.39 237.26 46.63 237.29 23.86 237.25 C 33.52 211.23 43.31 185.26 52.99 159.24 Z" />
<path fill="#ffffff" d=" M 94.17 159.19 C 121.54 159.19 148.90 159.18 176.27 159.19 C 176.29 185.22 176.26 211.24 176.28 237.27 C 148.91 237.28 121.53 237.27 94.16 237.27 C 94.17 211.24 94.15 185.21 94.17 159.19 Z" />
<path fill="#ffffff" d=" M 178.26 159.19 C 205.64 159.18 233.02 159.19 260.40 159.19 C 260.39 185.22 260.40 211.24 260.39 237.27 C 233.01 237.24 205.62 237.33 178.24 237.22 C 178.32 211.21 178.26 185.20 178.26 159.19 Z" />
<path fill="#ffffff" d=" M 262.41 159.19 C 289.78 159.20 317.15 159.17 344.52 159.20 C 344.53 185.22 344.53 211.25 344.52 237.28 C 317.15 237.26 289.78 237.28 262.41 237.27 C 262.38 211.24 262.40 185.21 262.41 159.19 Z" />
<path fill="#ffffff" d=" M 346.53 159.19 C 358.07 159.23 369.61 159.11 381.16 159.25 C 385.65 185.26 390.28 211.24 394.72 237.26 C 378.65 237.29 362.59 237.26 346.52 237.27 C 346.54 211.25 346.52 185.22 346.53 159.19 Z" />
<path fill="#ffffff" d=" M 494.00 159.25 C 505.55 159.12 517.09 159.22 528.63 159.19 C 528.64 185.22 528.64 211.25 528.63 237.28 C 512.57 237.24 496.50 237.31 480.43 237.24 C 484.91 211.24 489.51 185.25 494.00 159.25 Z" />
<path fill="#ffffff" d=" M 530.64 159.20 C 558.01 159.17 585.38 159.20 612.76 159.18 C 612.77 185.21 612.75 211.24 612.76 237.27 C 585.39 237.28 558.01 237.26 530.64 237.28 C 530.64 211.25 530.64 185.23 530.64 159.20 Z" />
<path fill="#ffffff" d=" M 614.75 159.20 C 642.12 159.18 669.49 159.19 696.86 159.19 C 696.85 185.22 696.87 211.25 696.85 237.27 C 669.49 237.26 642.12 237.28 614.76 237.26 C 614.76 211.24 614.78 185.22 614.75 159.20 Z" />
<path fill="#ffffff" d=" M 698.87 159.20 C 726.28 159.19 753.68 159.15 781.09 159.22 C 781.09 185.23 781.09 211.24 781.08 237.25 C 753.68 237.29 726.28 237.27 698.87 237.27 C 698.85 211.24 698.85 185.22 698.87 159.20 Z" />
<path fill="#ffffff" d=" M 783.09 159.19 C 796.11 159.21 809.13 159.15 822.15 159.22 C 831.88 185.23 841.61 211.24 851.32 237.25 C 828.58 237.29 805.84 237.26 783.09 237.27 C 783.10 211.24 783.08 185.21 783.09 159.19 Z" />
<path fill="#ffffff" d=" M 23.56 239.27 C 46.43 239.28 69.30 239.25 92.17 239.28 C 92.16 265.30 92.15 291.32 92.17 317.34 C 64.73 317.41 37.29 317.28 9.85 317.41 C 14.46 291.37 18.91 265.30 23.56 239.27 Z" />
<path fill="#ffffff" d=" M 94.17 239.27 C 121.54 239.26 148.90 239.27 176.27 239.27 C 176.28 265.30 176.27 291.33 176.27 317.36 C 148.90 317.35 121.53 317.36 94.16 317.36 C 94.17 291.33 94.16 265.30 94.17 239.27 Z" />
<path fill="#ffffff" d=" M 178.28 239.27 C 205.65 239.26 233.03 239.26 260.40 239.28 C 260.39 265.30 260.39 291.33 260.40 317.35 C 233.03 317.36 205.66 317.35 178.29 317.36 C 178.26 291.33 178.28 265.30 178.28 239.27 Z" />
<path fill="#ffffff" d=" M 262.40 239.27 C 289.78 239.26 317.15 239.26 344.53 239.27 C 344.51 265.30 344.54 291.33 344.52 317.36 C 317.15 317.33 289.78 317.37 262.42 317.36 C 262.38 291.33 262.41 265.30 262.40 239.27 Z" />
<path fill="#ffffff" d=" M 346.52 239.27 C 362.64 239.28 378.76 239.24 394.89 239.29 C 396.54 265.28 397.49 291.32 398.79 317.33 C 381.37 317.41 363.95 317.31 346.53 317.37 C 346.52 291.34 346.54 265.31 346.52 239.27 Z" />
<path fill="#ffffff" d=" M 480.23 239.29 C 496.37 239.24 512.51 239.29 528.65 239.27 C 528.62 265.30 528.66 291.33 528.63 317.37 C 511.21 317.31 493.79 317.40 476.37 317.33 C 477.64 291.32 478.69 265.29 480.23 239.29 Z" />
<path fill="#ffffff" d=" M 530.64 239.28 C 558.01 239.26 585.38 239.28 612.76 239.27 C 612.76 265.30 612.77 291.33 612.75 317.37 C 585.38 317.34 558.01 317.34 530.63 317.36 C 530.65 291.33 530.63 265.31 530.64 239.28 Z" />
<path fill="#ffffff" d=" M 614.76 239.28 C 642.12 239.26 669.49 239.27 696.86 239.27 C 696.86 265.30 696.86 291.33 696.85 317.36 C 669.49 317.34 642.12 317.37 614.76 317.34 C 614.76 291.32 614.77 265.30 614.76 239.28 Z" />
<path fill="#ffffff" d=" M 698.87 239.29 C 726.27 239.27 753.68 239.24 781.09 239.31 C 781.08 265.32 781.09 291.33 781.09 317.35 C 753.68 317.35 726.27 317.37 698.86 317.34 C 698.86 291.32 698.85 265.31 698.87 239.29 Z" />
<path fill="#ffffff" d=" M 783.10 239.27 C 805.93 239.29 828.77 239.24 851.62 239.30 C 856.25 265.32 860.71 291.37 865.31 317.40 C 837.90 317.29 810.50 317.37 783.10 317.36 C 783.09 291.33 783.09 265.30 783.10 239.27 Z" />
<path fill="#ffffff" d=" M 9.12 319.65 C 11.07 319.40 13.03 319.31 14.99 319.34 C 40.72 319.43 66.46 319.26 92.19 319.42 C 92.14 345.42 92.16 371.43 92.17 397.43 C 62.66 397.44 33.14 397.47 3.62 397.42 C 5.45 371.49 7.36 345.57 9.12 319.65 Z" />
<path fill="#ffffff" d=" M 94.17 319.36 C 121.54 319.36 148.91 319.34 176.28 319.37 C 176.27 345.39 176.28 371.41 176.27 397.44 C 148.90 397.45 121.53 397.43 94.16 397.45 C 94.17 371.42 94.16 345.39 94.17 319.36 Z" />
<path fill="#ffffff" d=" M 178.29 319.35 C 205.66 319.37 233.03 319.35 260.40 319.36 C 260.39 345.38 260.39 371.41 260.40 397.43 C 233.03 397.46 205.67 397.42 178.30 397.46 C 178.25 371.42 178.27 345.39 178.29 319.35 Z" />
<path fill="#ffffff" d=" M 262.40 319.35 C 289.77 319.36 317.15 319.36 344.53 319.36 C 344.52 345.38 344.53 371.41 344.53 397.44 C 317.15 397.44 289.77 397.44 262.40 397.44 C 262.40 371.41 262.40 345.38 262.40 319.35 Z" />
<path fill="#ffffff" d=" M 346.53 319.36 C 363.93 319.36 381.33 319.34 398.73 319.37 C 396.81 345.38 394.90 371.39 392.84 397.39 C 377.41 397.51 361.97 397.41 346.53 397.44 C 346.53 371.42 346.53 345.39 346.53 319.36 Z" />
<path fill="#ffffff" d=" M 476.42 319.38 C 493.83 319.32 511.23 319.38 528.64 319.35 C 528.64 345.38 528.64 371.41 528.64 397.44 C 513.22 397.45 497.81 397.43 482.40 397.45 C 480.17 371.45 478.42 345.40 476.42 319.38 Z" />
<path fill="#ffffff" d=" M 530.63 319.36 C 558.00 319.35 585.37 319.37 612.75 319.35 C 612.77 345.38 612.76 371.41 612.75 397.44 C 585.38 397.44 558.01 397.45 530.63 397.44 C 530.64 371.41 530.65 345.39 530.63 319.36 Z" />
<path fill="#ffffff" d=" M 614.75 319.37 C 642.12 319.34 669.49 319.37 696.86 319.35 C 696.86 345.38 696.87 371.41 696.85 397.45 C 669.49 397.44 642.12 397.44 614.75 397.44 C 614.77 371.42 614.77 345.39 614.75 319.37 Z" />
<path fill="#ffffff" d=" M 698.83 319.42 C 726.24 319.29 753.65 319.37 781.06 319.38 C 781.13 345.39 781.07 371.41 781.09 397.42 C 753.68 397.46 726.27 397.45 698.86 397.43 C 698.84 371.43 698.90 345.42 698.83 319.42 Z" />
<path fill="#ffffff" d=" M 783.09 319.35 C 809.41 319.36 835.72 319.36 862.03 319.35 C 863.36 319.37 864.70 319.49 866.04 319.63 C 867.80 345.56 869.73 371.48 871.53 397.41 C 842.04 397.48 812.56 397.43 783.07 397.43 C 783.11 371.41 783.07 345.38 783.09 319.35 Z" />
<path fill="#ffffff" d=" M 3.50 399.49 C 33.06 399.41 62.62 399.43 92.17 399.48 C 92.14 425.49 92.16 451.51 92.17 477.52 C 63.24 477.51 34.31 477.60 5.38 477.48 C 4.82 451.48 4.01 425.49 3.50 399.49 Z" />
<path fill="#ffffff" d=" M 94.17 399.44 C 121.54 399.46 148.91 399.43 176.28 399.46 C 176.27 425.48 176.27 451.50 176.28 477.53 C 148.91 477.54 121.54 477.53 94.16 477.53 C 94.17 451.50 94.16 425.47 94.17 399.44 Z" />
<path fill="#ffffff" d=" M 178.28 399.45 C 205.65 399.45 233.03 399.44 260.40 399.45 C 260.40 425.48 260.39 451.50 260.40 477.53 C 233.02 477.53 205.65 477.54 178.27 477.53 C 178.28 451.50 178.26 425.47 178.28 399.45 Z" />
<path fill="#ffffff" d=" M 262.40 399.45 C 289.78 399.45 317.15 399.45 344.53 399.44 C 344.52 425.47 344.53 451.50 344.53 477.53 C 317.16 477.54 289.79 477.52 262.42 477.55 C 262.38 451.51 262.41 425.48 262.40 399.45 Z" />
<path fill="#ffffff" d=" M 346.53 399.45 C 361.79 399.45 377.06 399.44 392.32 399.45 C 385.99 425.36 379.63 451.27 373.38 477.21 C 364.46 477.93 355.47 477.35 346.51 477.52 C 346.55 451.49 346.52 425.47 346.53 399.45 Z" />
<path fill="#ffffff" d=" M 482.86 399.45 C 498.12 399.44 513.38 399.45 528.64 399.44 C 528.64 425.48 528.64 451.51 528.64 477.54 C 519.68 477.29 510.68 478.02 501.76 477.16 C 495.55 451.23 489.14 425.36 482.86 399.45 Z" />
<path fill="#ffffff" d=" M 530.63 399.45 C 558.01 399.45 585.38 399.45 612.76 399.44 C 612.76 425.47 612.76 451.50 612.76 477.53 C 585.39 477.53 558.01 477.54 530.63 477.53 C 530.64 451.50 530.65 425.47 530.63 399.45 Z" />
<path fill="#ffffff" d=" M 614.76 399.45 C 642.13 399.43 669.49 399.46 696.86 399.44 C 696.86 425.47 696.86 451.50 696.86 477.53 C 669.49 477.53 642.12 477.55 614.75 477.52 C 614.78 451.50 614.76 425.47 614.76 399.45 Z" />
<path fill="#ffffff" d=" M 698.91 399.42 C 726.27 399.48 753.64 399.42 781.00 399.45 C 781.14 425.48 781.18 451.51 780.98 477.53 C 753.60 477.52 726.23 477.56 698.86 477.51 C 698.89 451.48 698.78 425.45 698.91 399.42 Z" />
<path fill="#ffffff" d=" M 783.09 399.44 C 812.62 399.50 842.15 399.36 871.67 399.51 C 871.12 425.51 870.39 451.50 869.75 477.49 C 840.87 477.58 811.98 477.51 783.09 477.53 C 783.09 451.50 783.09 425.47 783.09 399.44 Z" />
<path fill="#ffffff" d=" M 5.54 479.56 C 34.41 479.51 63.29 479.54 92.17 479.54 C 92.17 505.56 92.14 531.57 92.18 557.59 C 65.95 557.62 39.71 557.70 13.48 557.54 C 10.84 531.55 8.15 505.56 5.54 479.56 Z" />
<path fill="#ffffff" d=" M 94.16 479.53 C 121.53 479.54 148.91 479.52 176.28 479.54 C 176.28 505.56 176.27 531.59 176.28 557.61 C 148.91 557.64 121.54 557.60 94.17 557.63 C 94.16 531.60 94.17 505.56 94.16 479.53 Z" />
<path fill="#ffffff" d=" M 178.27 479.54 C 205.65 479.52 233.02 479.54 260.40 479.53 C 260.40 505.56 260.39 531.58 260.40 557.61 C 233.03 557.63 205.65 557.61 178.27 557.62 C 178.27 531.59 178.28 505.56 178.27 479.54 Z" />
<path fill="#ffffff" d=" M 262.40 557.62 C 262.40 531.59 262.39 505.56 262.41 479.53 C 289.78 479.54 317.15 479.53 344.52 479.53 C 344.53 505.56 344.53 531.59 344.52 557.62 C 317.15 557.62 289.78 557.62 262.40 557.62 Z" />
<path fill="#ffffff" d=" M 346.55 555.64 C 346.49 530.27 346.54 504.91 346.53 479.54 C 355.22 479.53 363.91 479.54 372.60 479.53 C 363.97 504.92 355.25 530.28 346.55 555.64 Z" />
<path fill="#ffffff" d=" M 502.55 479.54 C 511.24 479.53 519.94 479.53 528.63 479.53 C 528.63 504.93 528.67 530.32 528.61 555.71 C 519.95 530.31 511.21 504.94 502.55 479.54 Z" />
<path fill="#ffffff" d=" M 530.64 479.54 C 558.01 479.53 585.38 479.53 612.76 479.54 C 612.76 505.56 612.76 531.59 612.76 557.62 C 585.39 557.61 558.01 557.63 530.64 557.62 C 530.63 531.59 530.64 505.56 530.64 479.54 Z" />
<path fill="#ffffff" d=" M 614.76 479.54 C 642.13 479.53 669.49 479.53 696.86 479.54 C 696.85 505.57 696.87 531.60 696.85 557.63 C 669.48 557.60 642.12 557.63 614.75 557.61 C 614.78 531.59 614.76 505.56 614.76 479.54 Z" />
<path fill="#ffffff" d=" M 698.86 479.55 C 726.27 479.53 753.68 479.51 781.09 479.56 C 781.07 505.58 781.12 531.59 781.07 557.60 C 753.66 557.62 726.26 557.66 698.86 557.58 C 698.86 531.57 698.85 505.56 698.86 479.55 Z" />
<path fill="#ffffff" d=" M 783.09 479.53 C 811.93 479.55 840.78 479.50 869.62 479.56 C 867.01 505.57 864.37 531.58 861.64 557.58 C 835.46 557.67 809.28 557.59 783.10 557.62 C 783.09 531.59 783.09 505.56 783.09 479.53 Z" />
<path fill="#ffffff" d=" M 13.67 559.64 C 39.83 559.60 66.00 559.62 92.17 559.64 C 92.15 586.33 92.17 613.02 92.16 639.71 C 70.64 639.74 49.12 639.65 27.59 639.75 C 23.00 613.04 18.30 586.35 13.67 559.64 Z" />
<path fill="#ffffff" d=" M 94.16 559.62 C 121.53 559.63 148.91 559.62 176.28 559.63 C 176.26 586.32 176.30 613.02 176.26 639.71 C 148.90 639.71 121.53 639.71 94.17 639.71 C 94.16 613.01 94.17 586.32 94.16 559.62 Z" />
<path fill="#ffffff" d=" M 178.28 639.71 C 178.31 613.00 178.20 586.29 178.33 559.59 C 205.68 559.68 233.04 559.59 260.39 559.63 C 260.40 586.32 260.40 613.02 260.39 639.71 C 233.02 639.70 205.65 639.71 178.28 639.71 Z" />
<path fill="#ffffff" d=" M 262.41 639.72 C 262.39 613.02 262.40 586.32 262.40 559.62 C 289.70 559.63 316.99 559.62 344.29 559.62 C 333.27 586.26 322.17 612.86 311.19 639.51 C 294.94 639.97 278.67 639.57 262.41 639.72 Z" />
<path fill="#ffffff" d=" M 530.89 559.62 C 558.19 559.65 585.49 559.57 612.80 559.66 C 612.70 586.35 612.80 613.04 612.75 639.72 C 596.48 639.54 580.20 640.02 563.95 639.48 C 553.02 612.82 541.87 586.25 530.89 559.62 Z" />
<path fill="#ffffff" d=" M 614.77 559.63 C 642.13 559.62 669.50 559.62 696.86 559.62 C 696.85 586.32 696.86 613.01 696.86 639.71 C 669.49 639.71 642.12 639.71 614.75 639.71 C 614.78 613.01 614.76 586.32 614.77 559.63 Z" />
<path fill="#ffffff" d=" M 698.86 559.64 C 726.27 559.61 753.68 559.61 781.09 559.65 C 781.09 586.32 781.10 613.00 781.08 639.68 C 753.67 639.73 726.27 639.71 698.86 639.69 C 698.86 613.01 698.86 586.32 698.86 559.64 Z" />
<path fill="#ffffff" d=" M 783.09 559.62 C 809.23 559.64 835.36 559.59 861.49 559.64 C 856.89 586.35 852.13 613.03 847.60 639.74 C 826.10 639.67 804.60 639.72 783.10 639.72 C 783.08 613.02 783.09 586.32 783.09 559.62 Z" />
<path fill="#ffffff" d=" M 28.02 641.69 C 49.40 641.74 70.78 641.68 92.16 641.72 C 92.16 667.74 92.16 693.76 92.16 719.78 C 74.73 719.80 57.29 719.80 39.85 719.78 C 35.93 693.74 31.89 667.73 28.02 641.69 Z" />
<path fill="#ffffff" d=" M 94.17 641.72 C 121.54 641.70 148.90 641.72 176.27 641.71 C 176.27 667.74 176.27 693.77 176.27 719.79 C 148.91 719.79 121.54 719.79 94.17 719.79 C 94.15 693.77 94.17 667.74 94.17 641.72 Z" />
<path fill="#ffffff" d=" M 178.27 719.79 C 178.29 693.76 178.26 667.73 178.29 641.70 C 205.66 641.73 233.03 641.70 260.41 641.71 C 260.38 667.74 260.41 693.77 260.39 719.80 C 233.02 719.78 205.64 719.79 178.27 719.79 Z" />
<path fill="#ffffff" d=" M 262.40 719.79 C 262.40 693.76 262.38 667.74 262.41 641.71 C 278.49 641.72 294.57 641.70 310.64 641.72 C 308.04 667.73 305.58 693.76 302.88 719.76 C 289.39 719.83 275.89 719.77 262.40 719.79 Z" />
<path fill="#ffffff" d=" M 564.53 641.71 C 580.60 641.71 596.67 641.71 612.75 641.71 C 612.78 667.74 612.74 693.77 612.76 719.80 C 599.26 719.76 585.76 719.84 572.26 719.75 C 569.62 693.75 567.11 667.72 564.53 641.71 Z" />
<path fill="#ffffff" d=" M 614.76 641.71 C 642.12 641.72 669.49 641.70 696.86 641.71 C 696.87 667.74 696.84 693.76 696.87 719.79 C 669.50 719.80 642.12 719.79 614.75 719.79 C 614.77 693.76 614.77 667.74 614.76 641.71 Z" />
<path fill="#ffffff" d=" M 698.86 641.71 C 726.27 641.72 753.68 641.69 781.09 641.72 C 781.04 667.74 781.18 693.76 781.02 719.78 C 753.64 719.79 726.25 719.81 698.86 719.77 C 698.85 693.75 698.87 667.73 698.86 641.71 Z" />
<path fill="#ffffff" d=" M 783.09 641.71 C 804.45 641.70 825.82 641.72 847.18 641.71 C 843.22 667.73 839.27 693.76 835.29 719.78 C 817.89 719.80 800.49 719.79 783.09 719.79 C 783.09 693.76 783.08 667.74 783.09 641.71 Z" />
<path fill="#ffffff" d=" M 39.84 721.80 C 57.28 721.77 74.72 721.81 92.16 721.78 C 92.16 747.14 92.16 772.49 92.16 797.84 C 76.70 797.87 61.23 797.88 45.76 797.83 C 43.73 772.49 41.86 747.14 39.84 721.80 Z" />
<path fill="#ffffff" d=" M 94.17 721.80 C 121.54 721.77 148.90 721.80 176.27 721.80 C 176.28 747.15 176.27 772.50 176.27 797.85 C 148.90 797.86 121.53 797.87 94.16 797.85 C 94.17 772.50 94.16 747.15 94.17 721.80 Z" />
<path fill="#ffffff" d=" M 178.29 721.79 C 205.66 721.79 233.03 721.80 260.40 721.79 C 260.39 747.15 260.41 772.51 260.39 797.86 C 233.02 797.84 205.64 797.88 178.27 797.85 C 178.29 772.49 178.26 747.14 178.29 721.79 Z" />
<path fill="#ffffff" d=" M 262.39 797.85 C 262.43 772.49 262.37 747.13 262.42 721.78 C 275.96 721.80 289.49 721.81 303.03 721.77 C 306.88 747.15 311.14 772.47 314.75 797.88 C 297.30 797.83 279.84 797.88 262.39 797.85 Z" />
<path fill="#ffffff" d=" M 572.14 721.77 C 585.68 721.82 599.22 721.78 612.76 721.79 C 612.77 747.15 612.75 772.50 612.77 797.86 C 595.30 797.86 577.84 797.85 560.39 797.86 C 564.06 772.47 568.26 747.14 572.14 721.77 Z" />
<path fill="#ffffff" d=" M 614.78 721.80 C 642.14 721.80 669.50 721.79 696.86 721.80 C 696.86 747.15 696.85 772.51 696.86 797.86 C 669.50 797.86 642.14 797.86 614.77 797.86 C 614.76 772.50 614.75 747.15 614.78 721.80 Z" />
<path fill="#ffffff" d=" M 698.86 721.79 C 726.20 721.78 753.54 721.83 780.88 721.77 C 781.37 747.11 780.95 772.47 781.09 797.82 C 753.68 797.90 726.27 797.85 698.86 797.84 C 698.86 772.49 698.86 747.14 698.86 721.79 Z" />
<path fill="#ffffff" d=" M 783.09 721.80 C 800.49 721.80 817.90 721.78 835.31 721.80 C 833.31 747.15 831.46 772.50 829.37 797.84 C 813.94 797.88 798.52 797.84 783.09 797.86 C 783.09 772.51 783.09 747.15 783.09 721.80 Z" />
<path fill="#ffffff" d=" M 46.06 799.87 C 61.42 799.84 76.79 799.87 92.16 799.86 C 92.17 826.54 92.15 853.22 92.17 879.90 C 77.99 879.92 63.80 879.92 49.62 879.90 C 48.43 853.22 47.15 826.55 46.06 799.87 Z" />
<path fill="#ffffff" d=" M 94.19 799.85 C 121.55 799.87 148.91 799.85 176.27 799.86 C 176.28 826.54 176.27 853.23 176.28 879.91 C 148.92 879.94 121.56 879.83 94.19 879.96 C 94.14 853.26 94.15 826.56 94.19 799.85 Z" />
<path fill="#ffffff" d=" M 178.27 879.92 C 178.33 853.22 178.19 826.52 178.34 799.83 C 205.69 799.90 233.04 799.84 260.39 799.86 C 260.41 826.54 260.40 853.23 260.39 879.92 C 233.02 879.91 205.64 879.91 178.27 879.92 Z" />
<path fill="#ffffff" d=" M 262.39 879.90 C 262.43 853.22 262.36 826.54 262.42 799.85 C 279.94 799.86 297.46 799.86 314.98 799.85 C 320.83 826.54 326.74 853.21 332.57 879.90 C 309.18 879.91 285.78 879.93 262.39 879.90 Z" />
<path fill="#ffffff" d=" M 560.18 799.85 C 577.70 799.86 595.22 799.86 612.74 799.86 C 612.79 826.54 612.74 853.22 612.77 879.91 C 589.37 879.92 565.98 879.91 542.59 879.90 C 548.43 853.21 554.33 826.54 560.18 799.85 Z" />
<path fill="#ffffff" d=" M 614.77 799.86 C 642.12 799.86 669.48 799.87 696.84 799.85 C 696.88 826.54 696.85 853.23 696.86 879.92 C 669.49 879.91 642.13 879.92 614.76 879.91 C 614.77 853.23 614.76 826.54 614.77 799.86 Z" />
<path fill="#ffffff" d=" M 698.86 799.86 C 726.20 799.83 753.54 799.90 780.87 799.83 C 781.37 826.50 780.95 853.19 781.09 879.87 C 753.68 879.94 726.27 879.91 698.86 879.89 C 698.86 853.21 698.85 826.54 698.86 799.86 Z" />
<path fill="#ffffff" d=" M 783.11 799.86 C 798.45 799.87 813.79 799.84 829.13 799.86 C 827.99 826.54 826.73 853.20 825.56 879.88 C 811.35 879.91 797.15 879.97 782.94 879.85 C 783.30 853.19 782.96 826.52 783.11 799.86 Z" />
<path fill="#ffffff" d=" M 49.55 882.14 C 63.75 881.75 77.99 881.80 92.19 882.12 C 92.11 908.11 92.19 934.11 92.15 960.11 C 77.96 960.12 63.77 960.11 49.57 960.14 C 49.56 934.14 49.61 908.14 49.55 882.14 Z" />
<path fill="#ffffff" d=" M 94.14 882.08 C 121.51 881.67 148.89 882.06 176.26 881.91 C 176.28 907.98 176.28 934.05 176.27 960.12 C 148.91 960.12 121.55 960.11 94.19 960.12 C 94.12 934.11 94.21 908.09 94.14 882.08 Z" />
<path fill="#ffffff" d=" M 178.30 881.95 C 205.66 881.87 233.02 881.93 260.38 881.92 C 260.41 907.99 260.40 934.05 260.38 960.12 C 233.02 960.11 205.66 960.13 178.29 960.11 C 178.27 934.06 178.25 908.00 178.30 881.95 Z" />
<path fill="#ffffff" d=" M 262.42 881.93 C 285.98 881.92 309.54 881.88 333.11 881.95 C 336.94 908.01 341.05 934.03 344.76 960.10 C 317.32 960.15 289.88 960.08 262.45 960.14 C 262.35 934.07 262.40 908.00 262.42 881.93 Z" />
<path fill="#ffffff" d=" M 542.06 881.94 C 565.61 881.87 589.16 881.94 612.72 881.91 C 612.80 907.98 612.76 934.05 612.73 960.12 C 585.29 960.11 557.84 960.13 530.40 960.11 C 534.13 934.03 538.23 908.00 542.06 881.94 Z" />
<path fill="#ffffff" d=" M 614.75 882.07 C 642.10 881.72 669.46 882.01 696.82 881.91 C 696.89 907.98 696.87 934.05 696.83 960.12 C 669.48 960.12 642.12 960.12 614.77 960.12 C 614.74 934.10 614.79 908.08 614.75 882.07 Z" />
<path fill="#ffffff" d=" M 698.82 882.16 C 725.21 881.64 751.63 882.06 778.03 881.89 C 779.41 881.73 781.70 881.80 781.09 883.94 C 781.13 909.24 781.02 934.55 781.14 959.85 C 770.44 960.45 759.70 959.96 748.98 960.12 C 732.26 959.99 715.53 960.38 698.83 959.91 C 698.88 933.99 698.88 908.07 698.82 882.16 Z" />
<path fill="#ffffff" d=" M 783.14 881.90 C 797.29 882.06 811.45 881.63 825.60 882.12 C 825.60 908.10 825.54 934.07 825.63 960.04 C 811.46 960.23 797.29 960.06 783.12 960.12 C 783.08 934.05 783.04 907.97 783.14 881.90 Z" />
<path fill="#ffffff" d=" M 49.55 962.11 C 63.75 962.16 77.96 962.07 92.17 962.15 C 92.15 987.49 92.16 1012.83 92.16 1038.18 C 80.05 1038.16 67.94 1038.19 55.82 1038.16 C 53.61 1012.82 51.74 987.45 49.55 962.11 Z" />
<path fill="#ffffff" d=" M 94.16 962.13 C 121.53 962.10 148.90 962.13 176.27 962.12 C 176.27 987.47 176.28 1012.82 176.27 1038.17 C 148.90 1038.17 121.54 1038.17 94.18 1038.17 C 94.15 1012.82 94.18 987.47 94.16 962.13 Z" />
<path fill="#ffffff" d=" M 178.28 962.12 C 205.65 962.10 233.02 962.14 260.39 962.11 C 260.40 987.46 260.39 1012.81 260.40 1038.16 C 233.03 1038.18 205.66 1038.17 178.29 1038.17 C 178.26 1012.82 178.28 987.47 178.28 962.12 Z" />
<path fill="#ffffff" d=" M 262.39 962.13 C 289.88 962.09 317.37 962.15 344.86 962.11 C 345.33 987.46 346.26 1012.82 346.67 1038.17 C 318.59 1038.19 290.52 1038.14 262.45 1038.20 C 262.33 1012.84 262.45 987.49 262.39 962.13 Z" />
<path fill="#ffffff" d=" M 530.30 962.11 C 557.79 962.14 585.27 962.11 612.76 962.12 C 612.75 987.47 612.77 1012.82 612.76 1038.17 C 584.67 1038.17 556.58 1038.18 528.49 1038.16 C 528.92 1012.81 529.83 987.46 530.30 962.11 Z" />
<path fill="#ffffff" d=" M 614.77 962.12 C 642.13 962.12 669.49 962.14 696.86 962.12 C 696.86 987.46 696.86 1012.81 696.86 1038.17 C 669.50 1038.18 642.13 1038.17 614.77 1038.17 C 614.76 1012.82 614.75 987.47 614.77 962.12 Z" />
<path fill="#ffffff" d=" M 698.86 962.14 C 726.27 962.12 753.68 962.09 781.08 962.16 C 781.10 987.50 781.08 1012.84 781.09 1038.17 C 753.68 1038.17 726.28 1038.16 698.87 1038.18 C 698.85 1012.83 698.86 987.49 698.86 962.14 Z" />
<path fill="#ffffff" d=" M 783.08 962.12 C 797.26 962.11 811.43 962.15 825.61 962.10 C 823.42 987.45 821.59 1012.83 819.31 1038.17 C 807.24 1038.18 795.17 1038.17 783.10 1038.17 C 783.07 1012.82 783.10 987.47 783.08 962.12 Z" />
<path fill="#ffffff" d=" M 56.15 1040.17 C 68.16 1040.19 80.16 1040.16 92.16 1040.18 C 92.16 1059.78 92.16 1079.37 92.16 1098.97 C 92.12 1103.73 92.40 1108.51 91.70 1113.25 C 80.13 1088.76 68.01 1064.52 56.15 1040.17 Z" />
<path fill="#ffffff" d=" M 94.17 1040.17 C 121.54 1040.18 148.90 1040.17 176.27 1040.17 C 176.28 1065.53 176.28 1090.89 176.27 1116.25 C 148.90 1116.25 121.53 1116.26 94.16 1116.24 C 94.17 1090.89 94.16 1065.53 94.17 1040.17 Z" />
<path fill="#ffffff" d=" M 178.27 1040.18 C 205.65 1040.17 233.02 1040.19 260.40 1040.17 C 260.39 1065.53 260.40 1090.89 260.40 1116.25 C 233.03 1116.27 205.66 1116.22 178.29 1116.27 C 178.25 1090.90 178.29 1065.54 178.27 1040.18 Z" />
<path fill="#ffffff" d=" M 262.40 1040.17 C 290.44 1040.20 318.49 1040.14 346.53 1040.20 C 340.06 1065.51 333.69 1090.84 327.27 1116.17 C 305.65 1116.37 284.03 1116.18 262.41 1116.26 C 262.39 1090.89 262.40 1065.53 262.40 1040.17 Z" />
<path fill="#ffffff" d=" M 528.66 1040.18 C 556.69 1040.16 584.73 1040.19 612.76 1040.17 C 612.76 1065.53 612.76 1090.89 612.76 1116.25 C 591.14 1116.20 569.51 1116.37 547.89 1116.15 C 541.50 1090.82 535.06 1065.51 528.66 1040.18 Z" />
<path fill="#ffffff" d=" M 614.75 1040.18 C 642.12 1040.16 669.49 1040.19 696.86 1040.17 C 696.86 1065.53 696.86 1090.89 696.86 1116.25 C 669.49 1116.25 642.13 1116.27 614.77 1116.24 C 614.76 1090.89 614.78 1065.53 614.75 1040.18 Z" />
<path fill="#ffffff" d=" M 698.86 1040.18 C 726.27 1040.19 753.68 1040.14 781.09 1040.21 C 781.10 1065.55 781.08 1090.90 781.09 1116.24 C 753.69 1116.26 726.28 1116.27 698.87 1116.24 C 698.84 1090.89 698.86 1065.53 698.86 1040.18 Z" />
<path fill="#ffffff" d=" M 783.09 1040.17 C 795.06 1040.18 807.03 1040.18 819.00 1040.17 C 807.09 1064.54 795.11 1088.89 783.31 1113.31 C 782.81 1088.94 783.22 1064.55 783.09 1040.17 Z" />
<path fill="#ffffff" d=" M 94.92 1118.29 C 122.04 1118.19 149.15 1118.29 176.27 1118.25 C 176.29 1141.53 176.26 1164.81 176.28 1188.09 C 149.14 1164.84 121.98 1141.63 94.92 1118.29 Z" />
<path fill="#ffffff" d=" M 178.29 1118.25 C 205.66 1118.28 233.03 1118.22 260.40 1118.27 C 260.35 1139.83 260.48 1161.39 260.34 1182.95 C 233.00 1184.87 205.65 1186.61 178.32 1188.52 C 178.23 1165.09 178.29 1141.67 178.29 1118.25 Z" />
<path fill="#ffffff" d=" M 262.40 1118.25 C 283.52 1118.24 304.63 1118.29 325.75 1118.22 C 304.63 1139.16 283.48 1160.07 262.42 1181.08 C 262.38 1160.13 262.41 1139.19 262.40 1118.25 Z" />
<path fill="#ffffff" d=" M 549.42 1118.23 C 570.53 1118.29 591.65 1118.22 612.77 1118.26 C 612.74 1139.20 612.78 1160.14 612.74 1181.08 C 591.69 1160.08 570.54 1139.16 549.42 1118.23 Z" />
<path fill="#ffffff" d=" M 614.77 1118.25 C 642.13 1118.24 669.49 1118.25 696.86 1118.25 C 696.87 1141.66 696.85 1165.08 696.87 1188.49 C 669.52 1186.65 642.17 1184.83 614.83 1182.96 C 614.67 1161.39 614.80 1139.82 614.77 1118.25 Z" />
<path fill="#ffffff" d=" M 698.83 1118.33 C 725.97 1118.14 753.10 1118.31 780.24 1118.25 C 753.23 1141.66 726.01 1164.81 698.89 1188.09 C 698.80 1164.83 698.91 1141.58 698.83 1118.33 Z" />
</svg>
